<svg xmlns="http://www.w3.org/2000/svg" viewBox="-12 -12 24 24">
<defs>
<g id="pane" stroke-width="2">
<path d="M0,-9 V+9 H-6 a3,3 0 0 1 -3,-3 V-6 a3,3 0 0 1 +3,-3 z" />
</g>
<g id="arrow" stroke-width="1.5">
<path d="M5,-8.66 A9,9 0 0 1 5,8.66" />
<polyline points="4,8 0,10 4,12" transform="rotate(-30)" />
</g>
</defs>
<g stroke="currentColor" fill="none">
<g class="left-right-sidebar">
	<use href="#pane" />
	<g stroke-width="1" opacity=".5">
	<line x1="-7" x2="-2" y1="-4.5" y2="-4.5" />
	<line x1="-7" x2="-2" y1="-1.5" y2="-1.5" />
	<line x1="-7" x2="-2" y1="+1.5" y2="+1.5" />
	<line x1="-7" x2="-2" y1="+4.5" y2="+4.5" />
	</g>
</g>
<g class="left-right-map">
	<use href="#pane" transform="scale(-1,1)" fill="#bddab188" />
</g>
<g class="left-right-arrow">
	<use href="#arrow" />
</g>
</g>
<g stroke="currentColor" fill="none" transform="matrix(0,1,1,0,0,0)">
<g class="up-down-sidebar">
	<use href="#pane" />
	<g stroke-width="1" opacity=".5">
	<line y1="-5" y2="+5" x1="-5.5" x2="-5.5" />
	<line y1="-5" y2="+5" x1="-2.5" x2="-2.5" />
	</g>
</g>
<g class="up-down-map">
	<use href="#pane" transform="scale(-1,1)" fill="#bddab188" />
</g>
<g class="up-down-arrow">
	<use href="#arrow" />
</g>
</g>
</svg>
